<?xml version="1.0" encoding="utf-8"?>
<svg viewBox="0 0 500 500" xmlns="http://www.w3.org/2000/svg">
  <defs>
    <radialGradient gradientUnits="userSpaceOnUse" cx="32" cy="31" r="32.001" id="gradient-0" gradientTransform="matrix(7.819631, 0, 0, 8.0636, -128.241913, -101.652518)">
      <stop offset="0" style="stop-color: rgb(0% 49.02% 80.784%)"/>
      <stop offset="1" style="stop-color: rgb(0% 29.423% 52.071%)"/>
    </radialGradient>
  </defs>
  <g id="Слой_1" transform="matrix(1, 0, 0, 1, 128.756531, 101.978706)">
    <path style="fill-rule: evenodd; paint-order: fill; fill: url('#gradient-0');" d="M 364.235 369.356 C 362.586 386.088 347.939 398.288 331.627 398.288 L -96.967 398.288 C -115.264 398.288 -129.974 381.91 -128.09 362.72 C -126.447 345.979 -111.793 333.779 -95.481 333.779 L -89.147 333.779 C -80.467 333.779 -73.508 326.522 -73.508 317.651 C -73.508 313.217 -75.228 309.184 -78.044 306.282 C -80.873 303.282 -84.807 301.509 -89.209 301.525 C -96.498 301.548 -103.785 298.985 -107.813 292.727 C -120.128 273.616 -106.843 253.143 -89.147 253.143 L -42.229 253.143 C -16.314 253.143 4.688 231.484 4.688 204.761 C 4.688 178.038 -16.314 156.38 -42.229 156.38 L -89.147 156.38 C -107.444 156.38 -122.154 140.002 -120.27 120.812 C -118.628 104.071 -103.974 91.872 -87.661 91.872 L -62.561 91.872 C -49.502 91.872 -37.615 82.767 -34.997 69.575 C -31.399 51.433 -44.81 35.425 -61.779 35.425 L -77.417 35.425 C -96.185 35.425 -111.511 20.347 -112.528 1.236 C -112.606 0.511 -112.606 -0.134 -112.606 -0.86 C -112.606 -10.858 -108.696 -19.971 -102.285 -26.502 C -95.95 -33.115 -87.115 -37.147 -77.417 -37.147 L 26.036 -37.147 C 26.036 -37.227 26.114 -37.227 26.114 -37.308 C 32.104 -38.339 36.507 -43.846 35.912 -50.427 C 35.342 -56.749 29.711 -61.338 23.55 -61.338 L -7.041 -61.338 C -18.504 -61.338 -27.639 -71.448 -26.52 -83.504 C -25.543 -94.027 -16.198 -101.655 -5.947 -101.655 L 251.008 -101.655 C 262.471 -101.655 271.603 -91.544 270.486 -79.488 C 269.509 -68.966 260.164 -61.338 249.912 -61.338 L 227.548 -61.338 C 221.058 -61.338 215.819 -55.935 215.819 -49.241 C 215.819 -42.549 221.058 -37.147 227.548 -37.147 L 337.022 -37.147 C 348.486 -37.147 357.62 -27.035 356.502 -14.979 C 355.524 -4.456 346.18 3.172 335.928 3.172 L 334.067 3.172 C 326.27 3.172 318.99 8.615 317.7 16.541 C 316.058 26.612 323.636 35.425 333.113 35.425 L 339.447 35.425 C 355.758 35.425 370.405 47.626 372.055 64.358 C 373.939 83.558 359.16 99.935 340.933 99.935 L 251.008 99.935 C 235.892 99.935 223.638 112.57 223.638 128.156 C 223.638 143.745 235.892 156.38 251.008 156.38 L 332.088 156.38 C 343.435 156.38 353.898 164.218 356.103 175.692 C 359.067 191.111 347.563 204.761 333.113 204.761 L 263.862 204.761 C 253.634 204.761 244.313 212.341 243.289 222.832 C 242.108 234.896 251.28 245.08 262.737 245.08 L 343.826 245.08 C 356.885 245.08 368.849 254.071 371.578 267.247 C 375.331 285.317 361.78 301.525 344.842 301.525 L 334.067 301.525 C 326.27 301.525 318.998 306.967 317.7 314.894 C 316.058 324.967 323.636 333.779 333.113 333.779 C 351.34 333.779 366.119 350.157 364.235 369.356 Z"/>
    <g transform="matrix(7.314254, 0, 0, 7.314254, -108.790703, -51.884243)" style="">
      <linearGradient id="SVGID_00000061473689800147952810000015457682338766814604_" gradientUnits="userSpaceOnUse" x1="31.9954" y1="59.227" x2="31.9954" y2="25.1371">
        <stop offset="0" style="stop-color:#38A563"/>
        <stop offset="0.3064" style="stop-color:#39AA67"/>
        <stop offset="0.6586" style="stop-color:#3BB872"/>
        <stop offset="0.996" style="stop-color:#3ECC82"/>
      </linearGradient>
      <path style="fill:url(#SVGID_00000061473689800147952810000015457682338766814604_);" d="M37.456,25.802H26.518 c0,22.099-12.348,14.116-13.49,29.112c-0.127,1.664,0.894,3.22,2.501,3.672c2.46,0.692,7.153,1.392,16.459,1.392 s14.016-0.7,16.476-1.392c1.606-0.452,2.628-2.008,2.501-3.672C49.821,39.918,37.456,47.901,37.456,25.802z"/>
      <linearGradient id="SVGID_00000039843391569059723360000003409631877097629618_" gradientUnits="userSpaceOnUse" x1="32.0154" y1="35.3183" x2="32.0154" y2="4.4674">
        <stop offset="0" style="stop-color:#38A563"/>
        <stop offset="0.4538" style="stop-color:#3BB973"/>
        <stop offset="0.996" style="stop-color:#3ECC82"/>
      </linearGradient>
      <path style="fill:url(#SVGID_00000039843391569059723360000003409631877097629618_);" d="M37.518,20.084 c2.557-1.988,4.019-5.317,3.296-8.939c-0.695-3.484-3.509-6.285-6.997-6.964c-5.755-1.12-10.792,3.257-10.792,8.811 c0,2.886,1.366,5.447,3.48,7.092c-1.344,0.903-3.521,1.549-4.866,2.548c-0.451,0.335-0.686,0.882-0.583,1.435 c0.067,0.357,0.164,0.748,0.307,1.162c0.127,0.37,0.271,0.703,0.419,0.998c0.238,0.476,0.74,0.762,1.272,0.762h17.924 c0.532,0,1.034-0.286,1.272-0.762c0.147-0.295,0.291-0.628,0.419-0.998c0.142-0.414,0.24-0.805,0.307-1.162 c0.103-0.553-0.132-1.099-0.583-1.435C41.047,21.633,38.862,20.987,37.518,20.084z"/>
      <linearGradient id="SVGID_00000071529623382655992440000010803817173185689498_" gradientUnits="userSpaceOnUse" x1="29.5" y1="5.1782" x2="29.5" y2="18.6585">
        <stop offset="0" style="stop-color:#90F0B3"/>
        <stop offset="0.6335" style="stop-color:#5DD18D"/>
        <stop offset="1" style="stop-color:#56BE89"/>
      </linearGradient>
      <path style="fill:url(#SVGID_00000071529623382655992440000010803817173185689498_);" d="M32.893,7.007 c0.472,1.365-0.666,3.585-2.54,4.958c-1.874,1.373-3.776,1.381-4.247,0.016c-0.472-1.365,0.666-3.585,2.54-4.958 C30.52,5.65,32.422,5.643,32.893,7.007z"/>
    </g>
  </g>
  <g id="Bug" transform="matrix(1, 0, 0, 1, 128.756531, 101.978706)"/>
  <g id="Kiss_Panda" transform="matrix(1, 0, 0, 1, 128.756531, 101.978706)"/>
</svg>