<?xml version="1.0" encoding="UTF-8"?>
<!DOCTYPE svg PUBLIC "-//W3C//DTD SVG 1.1//EN" "http://www.w3.org/Graphics/SVG/1.1/DTD/svg11.dtd">
<svg xmlns="http://www.w3.org/2000/svg" version="1.1" width="50" height="50" style="shape-rendering:geometricPrecision; text-rendering:geometricPrecision; image-rendering:optimizeQuality; fill-rule:evenodd; clip-rule:evenodd" viewBox="16 16 400 400" xmlns:xlink="http://www.w3.org/1999/xlink">
<g><path style="opacity:1" fill="#488cbf" d="M 191.5,30.5 C 201.839,30.3335 212.172,30.5002 222.5,31C 226.662,41.4831 230.829,51.9831 235,62.5C 235.5,64.3333 236.667,65.5 238.5,66C 243.309,68.3864 248.309,69.7198 253.5,70C 263.833,65.5 274.167,61 284.5,56.5C 292.736,63.5557 299.903,71.2223 306,79.5C 301.07,90.1247 296.236,100.791 291.5,111.5C 294.128,116.558 296.461,121.725 298.5,127C 309.764,131.309 320.93,135.809 332,140.5C 332.667,150.5 332.667,160.5 332,170.5C 323.667,173.833 315.333,177.167 307,180.5C 306.667,199.167 306.333,217.833 306,236.5C 302.757,245.885 296.257,251.718 286.5,254C 268.833,254.333 251.167,254.667 233.5,255C 229.761,262.981 226.428,271.148 223.5,279.5C 213.517,280.666 203.517,280.832 193.5,280C 188.474,268.753 184.14,257.253 180.5,245.5C 174.844,244.003 169.344,242.003 164,239.5C 153,244.167 142,248.833 131,253.5C 123.709,247.211 116.709,240.544 110,233.5C 109.333,232.167 109.333,230.833 110,229.5C 114.333,219.833 118.667,210.167 123,200.5C 123.667,199.167 123.667,197.833 123,196.5C 120.774,192.482 118.941,188.315 117.5,184C 106.396,179.3 95.2297,174.8 84,170.5C 83.1809,159.923 83.3476,149.423 84.5,139C 92.3461,135.663 100.346,132.83 108.5,130.5C 108.333,112.497 108.5,94.4969 109,76.5C 110.502,66.6613 116.002,60.1613 125.5,57C 144.497,56.5001 163.497,56.3334 182.5,56.5C 185.102,47.6952 188.102,39.0285 191.5,30.5 Z"/></g>
<g><path style="opacity:1" fill="#fcfdfe" d="M 178.5,78.5 C 182.167,78.5 185.833,78.5 189.5,78.5C 189.5,87.1667 189.5,95.8333 189.5,104.5C 173.984,105.498 163.818,113.498 159,128.5C 158.248,155.082 171.081,167.249 197.5,165C 207.87,162.13 214.87,155.63 218.5,145.5C 212.872,144.505 207.206,144.171 201.5,144.5C 201.5,135.5 201.5,126.5 201.5,117.5C 223.213,114.143 243.213,118.309 261.5,130C 286.469,153.649 289.969,180.149 272,209.5C 262.041,222.424 248.874,229.924 232.5,232C 222.172,232.5 211.839,232.666 201.5,232.5C 201.5,223.833 201.5,215.167 201.5,206.5C 210.839,206.666 220.173,206.5 229.5,206C 249.823,201.211 258.657,188.378 256,167.5C 254.239,160.965 250.739,155.631 245.5,151.5C 230.685,185.074 205.352,197.574 169.5,189C 142.097,176.234 129.93,154.734 133,124.5C 139.054,99.9467 154.221,84.6133 178.5,78.5 Z"/></g>
<g><path style="opacity:1" fill="#424143" d="M 271.5,311.5 C 273.167,311.5 274.833,311.5 276.5,311.5C 276.5,313.5 276.5,315.5 276.5,317.5C 274.833,317.5 273.167,317.5 271.5,317.5C 271.5,315.5 271.5,313.5 271.5,311.5 Z"/></g>
<g><path style="opacity:1" fill="#444345" d="M 97.5,313.5 C 103.262,313.149 108.928,313.649 114.5,315C 120.504,317.053 123.17,321.053 122.5,327C 120.385,327.557 118.385,328.391 116.5,329.5C 112.632,321.598 106.632,319.431 98.5,323C 95.5332,325.1 93.6998,327.934 93,331.5C 91.887,338.715 92.5537,345.715 95,352.5C 99.0549,357.316 104.222,358.816 110.5,357C 116.614,356.049 118.947,352.549 117.5,346.5C 113.833,346.5 110.167,346.5 106.5,346.5C 106.5,343.833 106.5,341.167 106.5,338.5C 112.833,338.5 119.167,338.5 125.5,338.5C 129.913,356.448 122.913,365.781 104.5,366.5C 94.8411,366.354 88.3411,361.688 85,352.5C 83.5714,344.881 83.2381,337.215 84,329.5C 85.9497,321.888 90.4497,316.555 97.5,313.5 Z"/></g>
<g><path style="opacity:1" fill="#464547" d="M 187.5,313.5 C 193.262,313.149 198.928,313.649 204.5,315C 208.704,317.238 211.037,320.738 211.5,325.5C 209.396,325.799 207.396,325.466 205.5,324.5C 201.729,318.74 196.396,316.907 189.5,319C 184.311,321.913 183.144,326.08 186,331.5C 193.354,334.888 200.854,338.054 208.5,341C 213.993,348.571 213.66,355.905 207.5,363C 198.073,368.132 189.073,367.632 180.5,361.5C 178.106,358.935 177.106,356.101 177.5,353C 179.259,352.202 180.926,352.369 182.5,353.5C 184.806,359.072 188.973,361.405 195,360.5C 205.606,360.444 208.773,355.611 204.5,346C 198.275,343.388 191.942,341.055 185.5,339C 178.206,333.532 176.706,326.699 181,318.5C 182.965,316.45 185.132,314.783 187.5,313.5 Z"/></g>
<g><path style="opacity:1" fill="#444345" d="M 133.5,313.5 C 163.814,309.973 175.647,322.973 169,352.5C 166.737,359.097 162.237,363.264 155.5,365C 148.174,365.5 140.841,365.666 133.5,365.5C 133.5,348.167 133.5,330.833 133.5,313.5 Z"/></g>
<g><path style="opacity:1" fill="#bfbfbf" d="M 321.5,317.5 C 322.919,316.549 324.585,316.216 326.5,316.5C 326.5,319.5 326.5,322.5 326.5,325.5C 328.415,325.216 330.081,325.549 331.5,326.5C 329.5,326.5 327.5,326.5 325.5,326.5C 325.5,323.5 325.5,320.5 325.5,317.5C 324.167,317.5 322.833,317.5 321.5,317.5 Z"/></g>
<!-- <g><path style="opacity:1" fill="#fbfbfb" d="M 142.5,322.5 C 155.932,320.268 162.599,325.935 162.5,339.5C 162.399,352.939 155.732,358.939 142.5,357.5C 142.5,345.833 142.5,334.167 142.5,322.5 Z"/></g> -->
<g><path style="opacity:1" fill="#414042" d="M 321.5,317.5 C 322.833,317.5 324.167,317.5 325.5,317.5C 325.5,320.5 325.5,323.5 325.5,326.5C 327.5,326.5 329.5,326.5 331.5,326.5C 331.5,327.833 331.5,329.167 331.5,330.5C 329.5,330.5 327.5,330.5 325.5,330.5C 325.334,340.172 325.5,349.839 326,359.5C 326.383,360.056 326.883,360.389 327.5,360.5C 328.568,361.434 329.901,361.768 331.5,361.5C 331.5,362.833 331.5,364.167 331.5,365.5C 327.003,367.56 323.503,366.56 321,362.5C 320.5,351.839 320.333,341.172 320.5,330.5C 319.167,330.5 317.833,330.5 316.5,330.5C 316.5,329.167 316.5,327.833 316.5,326.5C 318.099,326.768 319.432,326.434 320.5,325.5C 320.833,322.833 321.167,320.167 321.5,317.5 Z"/></g>
<g><path style="opacity:1" fill="#454446" d="M 226.5,325.5 C 236.588,323.613 242.588,327.613 244.5,337.5C 242.5,337.5 240.5,337.5 238.5,337.5C 238.016,331.205 234.683,329.039 228.5,331C 224.471,334.918 222.804,339.751 223.5,345.5C 223.081,351.407 224.747,356.574 228.5,361C 235.01,362.588 238.343,360.088 238.5,353.5C 240.5,353.5 242.5,353.5 244.5,353.5C 243.191,363.647 237.524,367.813 227.5,366C 223.132,363.774 220.298,360.274 219,355.5C 218.333,348.833 218.333,342.167 219,335.5C 220.317,331.163 222.817,327.83 226.5,325.5 Z"/></g>
<g><path style="opacity:1" fill="#bababa" d="M 276.5,326.5 C 274.833,326.5 273.167,326.5 271.5,326.5C 271.5,339.5 271.5,352.5 271.5,365.5C 270.504,352.344 270.171,339.01 270.5,325.5C 272.735,325.205 274.735,325.539 276.5,326.5 Z"/></g>
<g><path style="opacity:1" fill="#b8b8b9" d="M 320.5,325.5 C 319.432,326.434 318.099,326.768 316.5,326.5C 316.5,327.833 316.5,329.167 316.5,330.5C 315.549,329.081 315.216,327.415 315.5,325.5C 317.167,325.5 318.833,325.5 320.5,325.5 Z"/></g>
<g><path style="opacity:1" fill="#403f41" d="M 256.5,339.5 C 255.507,347.984 255.174,356.651 255.5,365.5C 254.167,365.5 252.833,365.5 251.5,365.5C 251.5,352.5 251.5,339.5 251.5,326.5C 252.833,326.5 254.167,326.5 255.5,326.5C 255.338,328.527 255.505,330.527 256,332.5C 257.385,327.601 260.552,325.267 265.5,325.5C 265.5,327.5 265.5,329.5 265.5,331.5C 260.019,331.312 257.019,333.979 256.5,339.5 Z"/></g>
<g><path style="opacity:1" fill="#3f3e40" d="M 276.5,326.5 C 276.5,339.5 276.5,352.5 276.5,365.5C 274.833,365.5 273.167,365.5 271.5,365.5C 271.5,352.5 271.5,339.5 271.5,326.5C 273.167,326.5 274.833,326.5 276.5,326.5 Z"/></g>
<g><path style="opacity:1" fill="#424143" d="M 285.5,381.5 C 285.5,363.167 285.5,344.833 285.5,326.5C 287.167,326.5 288.833,326.5 290.5,326.5C 290.34,328.199 290.506,329.866 291,331.5C 294.656,325.334 299.822,323.834 306.5,327C 311.871,331.611 313.871,337.444 312.5,344.5C 313.512,352.299 311.512,359.133 306.5,365C 299.915,368.042 294.748,366.542 291,360.5C 290.5,367.492 290.334,374.492 290.5,381.5C 288.833,381.5 287.167,381.5 285.5,381.5 Z"/></g>
<g><path style="opacity:1" fill="#686769" d="M 255.5,326.5 C 254.167,326.5 252.833,326.5 251.5,326.5C 251.5,339.5 251.5,352.5 251.5,365.5C 251.167,365.5 250.833,365.5 250.5,365.5C 250.5,352.167 250.5,338.833 250.5,325.5C 252.415,325.216 254.081,325.549 255.5,326.5 Z"/></g>
<!-- <g><path style="opacity:1" fill="#fafafa" d="M 295.5,330.5 C 300.439,329.352 303.939,331.019 306,335.5C 306.667,342.5 306.667,349.5 306,356.5C 303.928,361.143 300.428,362.643 295.5,361C 293.106,359.048 291.606,356.548 291,353.5C 290.333,348.167 290.333,342.833 291,337.5C 292.012,334.798 293.512,332.465 295.5,330.5 Z"/></g> -->
<g><path style="opacity:1" fill="#9e9e9f" d="M 290.5,326.5 C 288.833,326.5 287.167,326.5 285.5,326.5C 285.5,344.833 285.5,363.167 285.5,381.5C 284.503,363.007 284.17,344.341 284.5,325.5C 286.735,325.205 288.735,325.539 290.5,326.5 Z"/></g>
<g><path style="opacity:1" fill="#8b8a8c" d="M 256.5,339.5 C 256.5,348.5 256.5,357.5 256.5,366.5C 254.265,366.795 252.265,366.461 250.5,365.5C 250.833,365.5 251.167,365.5 251.5,365.5C 252.833,365.5 254.167,365.5 255.5,365.5C 255.174,356.651 255.507,347.984 256.5,339.5 Z"/></g>
<g><path style="opacity:1" fill="#8a898a" d="M 327.5,360.5 C 329.167,360.5 330.833,360.5 332.5,360.5C 332.784,362.415 332.451,364.081 331.5,365.5C 331.5,364.167 331.5,362.833 331.5,361.5C 329.901,361.768 328.568,361.434 327.5,360.5 Z"/></g>
</svg>
