<?xml version="1.0" encoding="utf-8"?>
<svg viewBox="0 0 500 500" xmlns="http://www.w3.org/2000/svg">
  <path d="M 168.342 296.088 C 172.185 299.754 175.542 303.339 178.527 307.715 C 179.247 308.758 179.965 309.8 180.71 310.873 C 181.472 311.977 182.232 313.079 183.013 314.215 C 193.297 328.868 204.425 342.857 217.471 355.233 C 230.432 367.699 241.202 384.4 241.678 402.565 C 241.627 406.089 241.538 409.612 241.406 413.135 C 241.356 415.861 241.356 415.861 241.301 418.641 C 241.212 423.072 241.084 427.498 240.923 431.928 C 241.822 431.3 242.721 430.672 243.644 430.023 C 260.332 418.386 277.079 406.956 294.395 396.249 C 305.189 389.569 315.36 382.654 325.323 374.806 C 334.121 367.982 343.509 361.929 352.767 355.733 C 353.92 354.946 355.071 354.162 356.262 353.352 C 359.836 351.037 359.836 351.037 363.817 348.879 C 370.85 345.197 370.85 345.197 374.681 338.725 C 374.756 335.131 374.41 331.877 373.829 328.332 C 373.694 327.134 373.559 325.938 373.417 324.708 C 373.074 321.773 372.64 318.848 372.19 315.93 C 371.171 316.164 370.15 316.399 369.101 316.64 C 363.45 317.635 357.831 318.014 352.113 318.315 C 350.333 318.413 350.333 318.413 348.515 318.511 C 333.763 319.234 319.006 319.111 304.239 318.984 C 304.239 315.962 304.239 312.94 304.239 309.826 C 329.212 309.826 354.184 309.826 379.909 309.826 C 390.288 332.044 390.288 332.044 392.632 340.081 C 393.166 341.808 393.701 343.534 394.253 345.315 C 395.314 348.822 396.35 352.335 397.365 355.853 C 400.895 367.094 405.244 374.468 413.735 382.768 C 418.847 388.087 421.478 391.924 421.992 399.304 C 421.607 404.454 421.607 404.454 420.062 409.034 C 418.791 408.781 417.515 408.529 416.203 408.271 C 404.859 406.669 396.553 407.513 385.992 411.516 C 384.854 411.926 383.715 412.34 382.542 412.764 C 373.286 416.159 364.155 419.857 355.009 423.531 C 347.354 426.527 339.535 429.018 331.704 431.53 C 322.664 434.444 313.782 437.675 304.978 441.213 C 297.965 443.931 291.601 444.974 284.165 445.663 C 284.165 452.716 284.165 459.767 284.165 467.032 C 286.202 467.032 288.239 467.032 290.34 467.032 C 290.85 464.514 291.362 461.997 291.886 459.401 C 293.314 459.044 294.744 458.687 296.217 458.322 C 334.43 448.273 371.572 430.228 406.414 411.852 C 411.203 409.671 414.852 410.005 420.062 410.559 C 424.672 412.426 428.837 414.884 433.092 417.429 C 435.54 418.832 437.991 420.235 440.439 421.633 C 441.669 422.336 442.899 423.039 444.17 423.767 C 450.814 427.468 457.66 430.762 464.516 434.06 C 468.7 436.087 472.772 438.154 476.762 440.543 C 480.517 442.912 480.517 442.912 486.081 444.519 C 500.356 449.657 511.051 460.798 517.822 474.011 C 519.791 478.394 521.633 482.803 523.432 487.255 C 524.097 488.866 524.763 490.478 525.443 492.137 C 531.502 507.006 536.97 522.026 542.063 537.242 C 542.56 538.704 543.056 540.165 543.567 541.673 C 545.109 546.234 546.63 550.796 548.141 555.365 C 548.616 556.772 549.087 558.179 549.58 559.629 C 550.011 560.957 550.443 562.284 550.887 563.651 C 551.464 565.399 551.464 565.399 552.05 567.18 C 552.872 570.819 552.872 570.819 552.872 579.977 C 346.477 579.977 140.083 579.977 -72.566 579.977 C -72.566 529.019 -72.566 529.019 -61.964 504.654 C -60.223 500.627 -58.609 496.569 -57.025 492.478 C -46.646 466.188 -34.582 454.177 -8.813 441.615 C 4.75 434.957 18.218 428.114 31.673 421.244 C 34.016 420.048 36.358 418.856 38.7 417.659 C 44.338 414.787 49.973 411.91 55.609 409.034 C 53.57 409.034 51.529 409.034 49.43 409.034 C 47.879 402.702 47.01 397.206 47.888 390.72 C 50.2 387.142 52.756 384.002 55.578 380.802 C 63.708 370.843 68.288 360.626 72.402 348.555 C 77.175 335.03 82.634 322.398 89.584 309.826 C 95.698 309.826 101.814 309.826 108.115 309.826 C 107.095 310.329 106.076 310.833 105.027 311.351 C 105.027 312.357 105.027 313.367 105.027 314.404 C 102.988 314.404 100.947 314.404 98.849 314.404 C 96.34 329.987 96.34 329.987 100.574 344.681 C 105.395 350.01 111.235 353.983 117.209 357.957 C 120.658 360.323 123.887 362.861 127.135 365.486 C 129.319 367.221 131.504 368.955 133.69 370.684 C 134.721 371.515 135.746 372.344 136.809 373.198 C 137.789 373.939 138.77 374.681 139.778 375.445 C 140.637 376.11 141.495 376.778 142.375 377.463 C 145.294 378.884 145.294 378.884 148.757 377.33 C 155.753 374.164 161.654 370.488 166.797 364.772 C 168.699 359.379 168.642 354.373 168.493 348.703 C 168.515 346.44 168.515 346.44 168.536 344.13 C 168.569 339.338 168.505 334.553 168.437 329.762 C 168.441 326.503 168.454 323.242 168.471 319.98 C 168.502 312.016 168.451 304.052 168.342 296.088 Z" fill="#F3B8B5" style=""/>
  <path d="M 168.342 296.088 C 172.185 299.754 175.542 303.339 178.527 307.715 C 179.247 308.758 179.965 309.8 180.71 310.873 C 181.472 311.977 182.232 313.079 183.013 314.215 C 193.297 328.868 204.425 342.857 217.471 355.233 C 230.432 367.699 241.202 384.4 241.678 402.565 C 241.627 406.089 241.538 409.612 241.406 413.135 C 241.356 415.861 241.356 415.861 241.301 418.641 C 241.212 423.072 241.084 427.498 240.923 431.928 C 241.895 431.252 242.865 430.575 243.864 429.88 C 276.391 407.274 276.391 407.274 288.218 399.778 C 290.397 398.384 290.397 398.384 292.621 396.959 C 297.279 394.972 299.511 395.126 304.239 396.823 C 304.751 397.831 305.26 398.837 305.784 399.876 C 304.961 400.286 304.137 400.695 303.288 401.114 C 293.374 406.269 285.029 412.65 276.444 419.717 C 261.996 431.443 246.185 441.064 229.727 449.767 C 228.46 450.446 227.189 451.129 225.881 451.828 C 224.689 452.445 223.502 453.06 222.272 453.694 C 220.686 454.519 220.686 454.519 219.069 455.361 C 216.213 456.348 216.213 456.348 211.582 454.821 C 215.659 451.296 219.735 447.77 223.937 444.137 C 216.686 434.582 207.453 433.067 196.138 428.876 C 196.138 478.738 196.138 528.602 196.138 579.977 C 107.466 579.977 18.793 579.977 -72.566 579.977 C -72.566 529.019 -72.566 529.019 -61.964 504.654 C -60.223 500.627 -58.609 496.569 -57.025 492.478 C -46.646 466.188 -34.582 454.177 -8.813 441.615 C 4.75 434.957 18.218 428.114 31.673 421.244 C 34.016 420.048 36.358 418.856 38.7 417.659 C 44.338 414.787 49.973 411.91 55.609 409.034 C 53.57 409.034 51.529 409.034 49.43 409.034 C 47.879 402.702 47.01 397.206 47.888 390.72 C 50.2 387.142 52.756 384.002 55.578 380.802 C 63.708 370.843 68.288 360.626 72.402 348.555 C 77.175 335.03 82.634 322.398 89.584 309.826 C 95.698 309.826 101.814 309.826 108.115 309.826 C 107.095 310.329 106.076 310.833 105.027 311.351 C 105.027 312.357 105.027 313.367 105.027 314.404 C 102.988 314.404 100.947 314.404 98.849 314.404 C 96.34 329.987 96.34 329.987 100.574 344.681 C 105.395 350.01 111.235 353.983 117.209 357.957 C 120.658 360.323 123.887 362.861 127.135 365.486 C 129.319 367.221 131.504 368.955 133.69 370.684 C 134.721 371.515 135.746 372.344 136.809 373.198 C 137.789 373.939 138.77 374.681 139.778 375.445 C 140.637 376.11 141.495 376.778 142.375 377.463 C 145.294 378.884 145.294 378.884 148.757 377.33 C 155.753 374.164 161.654 370.488 166.797 364.772 C 168.699 359.379 168.642 354.373 168.493 348.703 C 168.515 346.44 168.515 346.44 168.536 344.13 C 168.569 339.338 168.505 334.553 168.437 329.762 C 168.441 326.503 168.454 323.242 168.471 319.98 C 168.502 312.016 168.451 304.052 168.342 296.088 Z" fill="#FCEAE0" style=""/>
  <path d="M 243.711 106.258 C 255.718 112.431 264.264 120.73 270.265 132.777 C 271.477 137.826 272.023 142.571 272.099 147.754 C 272.126 149.189 272.148 150.626 272.174 152.107 C 272.191 153.662 272.211 155.218 272.23 156.821 C 272.256 158.478 272.281 160.129 272.307 161.833 C 272.521 177.031 272.645 192.227 272.736 207.426 C 272.799 217.634 272.891 227.838 273.061 238.042 C 273.221 247.92 273.304 257.796 273.338 267.672 C 273.362 271.435 273.412 275.195 273.491 278.957 C 273.593 284.222 273.604 289.479 273.588 294.74 C 273.642 296.294 273.694 297.847 273.751 299.448 C 273.677 303.904 273.454 307.195 271.812 311.351 C 261.619 320.504 246.712 325.616 233.008 325.372 C 207.104 321.948 178.329 300.243 162.165 280.827 C 154.649 268.604 154.209 252.098 154.443 238.09 C 152.629 238.28 150.813 238.469 148.943 238.661 C 142.208 238.581 138.651 236.821 133.849 232.217 C 121.1 215.919 117.043 195.488 116.802 175.417 C 116.781 174.142 116.758 172.872 116.736 171.559 C 116.747 170.358 116.756 169.161 116.766 167.923 C 116.771 166.846 116.777 165.775 116.782 164.666 C 117.57 160.866 118.88 159.486 122.013 157.197 C 128.12 157.197 131.53 157.559 136.107 161.68 C 140.093 168.117 143.454 174.8 146.721 181.619 C 146.779 180.162 146.837 178.7 146.898 177.202 C 147.828 159.129 147.828 159.129 150.581 150.999 C 153.819 140.966 153.516 130.557 153.451 120.113 C 153.609 109.42 153.609 109.42 158.064 103.741 C 184.168 84.544 215.844 93.825 243.711 106.258 Z" fill="#FDDAC3" style=""/>
  <path d="M 58.696 405.981 C 82.877 404.038 107.929 416.665 130.42 424.429 C 134.568 425.861 138.723 427.28 142.88 428.696 C 144.122 429.129 145.363 429.56 146.643 430.006 C 155.317 432.952 163.96 434.886 172.975 436.507 C 175.55 437.011 178.124 437.517 180.697 438.034 C 180.697 439.04 180.697 440.046 180.697 441.086 C 181.716 441.086 182.734 441.086 183.786 441.086 C 184.296 437.561 184.805 434.034 185.33 430.401 C 185.841 430.401 186.348 430.401 186.874 430.401 C 186.874 479.761 186.874 529.121 186.874 579.977 C 125.209 579.977 63.547 579.977 0.014 579.977 C -2.732 490.435 -2.732 490.435 7.855 477.323 C 14.015 470.893 20.786 467.554 28.97 464.17 C 30.422 463.544 31.876 462.916 33.374 462.272 C 56.526 452.457 80.304 443.913 104.307 436.363 C 108.422 435.032 108.422 435.032 112.748 431.928 C 106.541 428.933 100.336 425.946 94.121 422.966 C 92.013 421.951 89.904 420.935 87.796 419.918 C 84.752 418.451 81.709 416.991 78.664 415.533 C 76.836 414.653 75.009 413.772 73.128 412.867 C 68.373 410.742 63.674 409.034 58.696 407.507 C 58.696 407.003 58.696 406.499 58.696 405.981 Z" fill="#F4B9B6" style=""/>
  <path d="M 313.506 401.402 C 314.515 401.848 315.523 402.295 316.56 402.753 C 320.059 404.311 323.54 405.906 327.019 407.507 C 328.225 408.05 329.427 408.592 330.669 409.152 C 332.387 409.945 332.387 409.945 334.136 410.751 C 335.179 411.226 336.221 411.703 337.296 412.193 C 339.76 413.612 339.76 413.612 341.303 416.665 C 340.452 416.932 339.599 417.201 338.717 417.475 C 334.684 418.748 330.658 420.043 326.632 421.338 C 324.622 421.969 324.622 421.969 322.574 422.61 C 309.212 426.934 297.256 432.372 284.165 438.034 C 283.655 484.873 283.146 531.715 282.619 579.977 C 254.081 579.977 225.541 579.977 196.138 579.977 C 196.138 530.113 196.138 480.249 196.138 428.876 C 204.278 430.216 206.727 430.925 213.127 434.979 C 214.463 435.452 215.802 435.925 217.179 436.411 C 220.847 438.034 220.847 438.034 225.483 444.137 C 221.403 447.665 217.326 451.188 213.127 454.821 C 220.193 452.697 226.615 449.871 233.107 446.428 C 234.095 445.909 235.082 445.386 236.101 444.851 C 244.888 440.119 253.179 434.751 261.39 429.104 C 268.423 424.297 268.423 424.297 271.812 424.297 C 272.577 422.029 272.577 422.029 273.354 419.717 C 276.841 416.868 276.841 416.868 281.269 413.802 C 282.801 412.734 284.335 411.666 285.913 410.565 C 287.376 409.555 288.837 408.547 290.34 407.507 C 292.401 406.013 294.461 404.522 296.521 403.024 C 303.6 398.211 305.924 397.962 313.506 401.402 Z" fill="#F3B7B4" style=""/>
  <path d="M 304.239 309.826 C 329.212 309.826 354.184 309.826 379.909 309.826 C 390.288 332.044 390.288 332.044 392.632 340.081 C 393.435 342.674 393.435 342.674 394.253 345.315 C 395.314 348.822 396.35 352.335 397.365 355.853 C 400.895 367.094 405.244 374.468 413.735 382.768 C 418.847 388.087 421.478 391.924 421.992 399.304 C 421.607 404.454 421.607 404.454 420.062 409.034 C 418.791 408.781 417.515 408.529 416.203 408.271 C 404.859 406.669 396.553 407.513 385.992 411.516 C 384.283 412.134 384.283 412.134 382.542 412.764 C 373.286 416.159 364.155 419.857 355.009 423.531 C 347.354 426.527 339.535 429.018 331.704 431.53 C 322.664 434.444 313.782 437.675 304.978 441.213 C 297.965 443.931 291.601 444.974 284.165 445.663 C 284.165 452.716 284.165 459.767 284.165 467.032 C 286.202 467.032 288.239 467.032 290.34 467.032 C 290.85 464.514 291.362 461.997 291.886 459.401 C 294.028 458.867 294.028 458.867 296.217 458.322 C 334.43 448.273 371.572 430.228 406.414 411.852 C 411.203 409.671 414.852 410.005 420.062 410.559 C 424.672 412.426 428.837 414.884 433.092 417.429 C 435.54 418.832 437.991 420.235 440.439 421.633 C 441.669 422.336 442.899 423.039 444.17 423.767 C 450.814 427.468 457.66 430.762 464.516 434.06 C 469.931 436.682 475.236 439.348 480.291 442.61 C 480.291 443.115 480.291 443.618 480.291 444.137 C 478.088 444.386 478.088 444.386 475.839 444.644 C 446.499 448.023 417.271 451.919 388.178 457.007 C 385.275 457.515 382.374 458.015 379.47 458.503 C 361.549 461.546 345.555 465.74 328.948 473.137 C 325.701 474.507 322.453 475.874 319.2 477.237 C 317.868 477.81 316.538 478.384 315.165 478.973 C 308.567 481.467 301.741 483.34 294.973 485.348 C 294.464 516.575 293.955 547.802 293.432 579.977 C 289.863 579.977 286.297 579.977 282.619 579.977 C 282.619 533.135 282.619 486.291 282.619 438.034 C 300.001 429.446 300.001 429.446 306.339 427.092 C 307.71 426.58 309.082 426.067 310.496 425.54 C 311.872 425.035 313.247 424.53 314.665 424.009 C 316.063 423.488 317.462 422.966 318.906 422.426 C 325.816 419.859 332.734 417.379 339.76 415.138 C 338.935 414.754 338.113 414.37 337.262 413.974 C 333.459 412.202 329.663 410.426 325.86 408.652 C 324.565 408.047 323.27 407.443 321.934 406.823 C 313.923 403.078 305.974 399.24 298.065 395.296 C 314.198 382.288 331.293 370.326 348.446 358.666 C 349.454 357.965 350.464 357.267 351.503 356.543 C 355.779 353.606 359.775 351.064 364.509 348.878 C 369.952 346.333 369.952 346.333 373.734 341.877 C 374.92 333.223 373.512 324.495 372.19 315.93 C 371.171 316.164 370.15 316.399 369.101 316.64 C 363.45 317.635 357.831 318.014 352.113 318.315 C 350.924 318.38 349.741 318.444 348.515 318.511 C 333.763 319.234 319.006 319.111 304.239 318.984 C 304.239 315.962 304.239 312.94 304.239 309.826 Z" fill="#BE6B7B" style=""/>
  <path d="M 267.178 4.571 C 289.817 8.044 306.383 20.007 322.619 35.139 C 324.923 37.279 327.25 39.392 329.59 41.492 C 333.507 45.008 337.36 48.577 341.205 52.171 C 342.442 53.275 343.677 54.378 344.952 55.519 C 346.087 56.607 347.222 57.696 348.391 58.817 C 349.41 59.763 350.425 60.707 351.473 61.681 C 357.505 72.559 352.81 87.606 350.551 99.134 C 350.226 100.823 349.901 102.51 349.568 104.249 C 348.882 107.792 348.186 111.334 347.484 114.873 C 346.418 120.286 345.397 125.706 344.382 131.129 C 343.708 134.581 343.028 138.036 342.348 141.489 C 342.048 143.101 341.753 144.72 341.444 146.383 C 339.603 155.388 337.901 160.294 330.494 166.357 C 328.387 171.307 328.387 171.307 327.114 176.562 C 324.593 185.921 324.593 185.921 321.228 189.249 C 321.175 188.415 321.12 187.581 321.066 186.72 C 319.737 167.22 316.625 149.773 310.42 131.251 C 306.703 119.154 304.409 107.148 302.695 94.621 C 301.783 94.713 300.87 94.805 299.928 94.899 C 268.756 97.974 237.558 99.809 206.454 95.326 C 185.734 92.748 185.734 92.748 166.298 98.644 C 165.444 99.332 164.588 100.019 163.71 100.727 C 162.35 101.721 160.989 102.721 159.589 103.748 C 154.341 110.465 154.971 116.312 155.021 124.576 C 154.835 135.12 154.318 144.193 150.889 154.24 C 148.281 165.076 148.603 176.627 148.266 187.723 C 146.484 184.222 144.735 180.708 143.012 177.179 C 142.23 175.588 141.447 174 140.642 172.365 C 139.864 170.771 139.083 169.182 138.282 167.541 C 136.268 163.387 136.268 163.387 133.567 161.23 C 130.561 157.938 130.174 155.349 129.354 151.003 C 129.051 149.449 128.749 147.9 128.44 146.3 C 127.982 143.81 127.982 143.81 127.513 141.266 C 126.853 137.811 126.19 134.356 125.531 130.899 C 125.204 129.167 124.876 127.437 124.539 125.649 C 123.628 120.928 122.649 116.226 121.633 111.523 C 121.339 110.145 121.043 108.767 120.74 107.349 C 120.188 104.777 119.623 102.202 119.048 99.633 C 117.751 93.483 116.772 88.52 118.923 82.41 C 122.108 78.88 122.108 78.88 125.101 76.307 C 126.121 79.327 127.139 82.35 128.189 85.462 C 148.294 86.76 163.497 76.552 178.668 64.571 C 193.369 52.989 205.51 51.589 223.937 51.597 C 225.866 51.597 227.797 51.596 229.786 51.594 C 244.928 51.68 259.783 52.68 274.786 54.657 C 278.926 55.02 283.098 54.937 287.252 54.937 C 277.063 53.426 266.869 51.915 256.367 50.36 C 256.367 49.855 256.367 49.351 256.367 48.832 C 268.341 48.676 280.101 48.893 292.025 50.019 C 299.185 50.561 306.33 50.482 313.506 50.36 C 312.852 49.727 312.198 49.099 311.522 48.451 C 306.677 43.735 302.004 38.964 297.58 33.857 C 288.476 23.46 279.147 13.255 267.178 6.097 C 267.178 5.594 267.178 5.089 267.178 4.571 Z" fill="#0D0128" style=""/>
  <path d="M 73.453 410.946 C 75.252 411.823 77.054 412.696 78.91 413.601 C 79.883 414.066 80.855 414.534 81.858 415.015 C 83.893 415.997 85.921 416.991 87.944 417.993 C 91.048 419.533 94.17 421.04 97.297 422.537 C 112.506 429.922 112.506 429.922 114.29 433.454 C 103.382 438.207 92.363 442.32 81.088 446.139 C 38.205 458.216 38.205 458.216 4.646 483.819 C -0.508 494.63 -0.603 505.17 -0.436 516.926 C -0.428 519.643 -0.428 519.643 -0.419 522.411 C -0.393 528.152 -0.335 533.887 -0.276 539.625 C -0.254 543.532 -0.232 547.441 -0.214 551.348 C -0.167 560.893 -0.075 570.433 0.013 579.976 C -23.938 579.976 -47.892 579.976 -72.567 579.976 C -73.66 551.762 -73.267 530.625 -61.965 504.654 C -60.223 500.627 -58.611 496.569 -57.025 492.477 C -46.641 466.168 -34.57 454.157 -8.765 441.615 C 0.157 437.248 8.99 432.743 17.772 428.111 C 21.047 426.396 24.327 424.683 27.604 422.972 C 29.826 421.805 32.044 420.631 34.261 419.448 C 37.536 417.702 40.829 415.986 44.122 414.279 C 45.095 413.75 46.07 413.22 47.074 412.676 C 56.373 407.922 63.52 407.484 73.453 410.946 Z" fill="#FCEEE2" style=""/>
  <path d="M 304.239 94.621 C 304.387 95.519 304.535 96.416 304.686 97.338 C 307.478 114.141 310.649 130.194 316.439 146.24 C 321.007 159.273 321.945 172.497 322.773 186.197 C 323.238 184.614 323.707 183.034 324.189 181.405 C 324.841 179.311 325.494 177.222 326.15 175.132 C 326.605 173.57 326.605 173.57 327.069 171.975 C 329.332 164.894 331.754 161.061 338.215 157.197 C 343.501 157.441 345.262 158.056 349.025 161.777 C 352.467 186.857 349.695 209.659 335.707 230.936 C 330.402 236.868 330.402 236.868 325.86 238.09 C 322.773 238.124 319.682 238.126 316.595 238.09 C 316.482 240.302 316.482 240.302 316.365 242.562 C 314.383 276.683 314.383 276.683 304.239 286.931 C 298.76 291.753 293.061 296.242 287.252 300.668 C 286.019 301.627 284.784 302.588 283.515 303.579 C 275.342 309.826 275.342 309.826 271.812 309.826 C 271.809 308.966 271.804 308.105 271.802 307.216 C 271.706 286.236 271.593 265.252 271.446 244.268 C 271.377 234.124 271.315 223.975 271.276 213.828 C 271.234 204.034 271.172 194.233 271.094 184.435 C 271.068 180.704 271.051 176.969 271.042 173.238 C 271.028 167.997 270.984 162.757 270.934 157.52 C 270.936 155.984 270.937 154.451 270.941 152.869 C 270.779 140.868 269.007 129.988 261 120.568 C 261 119.561 261 118.552 261 117.513 C 260.118 117.097 259.24 116.679 258.332 116.252 C 254.822 114.461 254.822 114.461 251.696 112.483 C 237.045 103.535 220.427 100.19 203.86 96.148 C 203.86 95.643 203.86 95.141 203.86 94.621 C 215.215 94.426 215.215 94.426 220.101 95.372 C 228.127 96.528 236.101 96.438 244.205 96.433 C 245.975 96.436 247.745 96.438 249.57 96.439 C 262.121 96.369 274.445 95.617 286.895 94.046 C 293.139 93.278 298.129 93.224 304.239 94.621 Z" fill="#CF7871" style=""/>
  <path d="M 301.151 286.931 C 302.681 287.686 302.681 287.686 304.239 288.457 C 304.239 298.53 304.239 308.606 304.239 318.984 C 326.663 317.976 349.087 316.969 372.19 315.93 C 375.276 334.247 375.276 334.247 375.276 341.877 C 372.209 344.654 369.465 346.726 366.012 348.936 C 365.041 349.59 364.067 350.244 363.067 350.916 C 360.995 352.308 358.913 353.687 356.829 355.058 C 352.758 357.731 348.733 360.457 344.71 363.197 C 342.686 364.572 340.658 365.942 338.627 367.307 C 332.84 371.208 327.153 375.213 321.529 379.349 C 320.288 380.255 319.048 381.164 317.769 382.099 C 315.367 383.861 312.977 385.642 310.593 387.435 C 299.533 395.539 299.533 395.539 291.886 395.296 C 287.829 393.638 284.5 391.989 280.786 389.766 C 279.729 389.151 278.673 388.537 277.582 387.905 C 257.234 375.9 237.71 362.621 220.06 346.967 C 217.731 344.904 215.374 342.876 213.014 340.851 C 201.569 330.905 191.783 320.021 182.24 308.299 C 181.097 306.911 179.956 305.525 178.778 304.096 C 171.431 295.011 171.431 295.011 171.431 291.51 C 175.521 293.439 179.189 295.532 182.855 298.157 C 209.377 317.824 209.377 317.824 240.923 323.56 C 263.281 319.419 285.631 302.806 301.151 286.931 Z" fill="#421735" style=""/>
  <path d="M 218.075 -2.017 C 221.364 -2.013 224.65 -2.047 227.936 -2.087 C 262.728 -2.258 262.728 -2.258 272.806 6.655 C 274.007 7.982 275.207 9.307 276.444 10.673 C 278.481 12.675 280.521 14.67 282.56 16.666 C 284.832 18.899 287.106 21.131 289.377 23.361 C 290.504 24.463 291.631 25.563 292.791 26.698 C 311.742 45.345 311.742 45.345 315.049 51.884 C 298.527 52.183 282.131 51.238 265.633 50.359 C 285.508 52.623 285.508 52.623 305.784 54.937 C 305.784 55.441 305.784 55.944 305.784 56.461 C 291.557 56.77 277.65 56.605 263.511 54.937 C 250.448 53.461 237.469 53.021 224.324 52.933 C 222.484 52.906 220.647 52.88 218.751 52.852 C 204.753 52.86 195.151 55.188 183.303 62.853 C 181.866 63.779 180.429 64.706 178.948 65.662 C 174.454 68.719 170.097 71.919 165.737 75.158 C 154.273 83.528 142.545 87.777 128.189 86.989 C 124.129 82.974 123.898 80.384 123.558 74.778 C 124.27 73.892 124.98 73.004 125.712 72.09 C 128.992 67.569 129.518 63.537 130.508 58.084 C 131.822 50.852 133.436 45.83 137.455 39.675 C 138.125 37.836 138.125 37.836 138.806 35.96 C 141.097 30.795 144.467 26.913 148.266 22.788 C 149.012 21.977 149.761 21.165 150.529 20.327 C 156.311 14.346 161.784 10.996 169.893 8.613 C 173.286 7.779 173.286 7.779 176.065 4.568 C 179.528 3.712 179.528 3.712 183.592 3.043 C 189.122 2.182 189.122 2.182 194.172 -0.035 C 201.497 -3.166 210.182 -2.041 218.075 -2.017 Z" fill="#64424E" style=""/>
  <path d="M 206.948 96.148 C 255.033 107.122 255.033 107.122 266.404 124.952 C 270.652 132.263 271.972 138.888 272.097 147.243 C 272.136 149.377 272.136 149.377 272.172 151.551 C 272.202 153.863 272.202 153.863 272.23 156.218 C 272.255 157.86 272.281 159.495 272.306 161.182 C 272.521 176.23 272.642 191.275 272.736 206.323 C 272.798 216.43 272.89 226.533 273.059 236.637 C 273.221 246.417 273.304 256.194 273.338 265.971 C 273.362 269.696 273.412 273.42 273.491 277.146 C 273.593 282.359 273.604 287.562 273.588 292.772 C 273.641 294.313 273.694 295.849 273.748 297.432 C 273.676 301.844 273.45 305.104 271.812 309.219 C 262.177 317.838 248.231 322.448 235.326 323.101 C 234.114 323.011 232.904 322.916 231.658 322.819 C 232.676 322.321 233.699 321.822 234.746 321.307 C 234.651 297.161 234.534 273.017 234.382 248.875 C 234.312 237.663 234.253 226.451 234.212 215.237 C 234.177 205.458 234.122 195.679 234.053 185.902 C 234.016 180.729 233.988 175.558 233.979 170.386 C 233.964 164.595 233.921 158.804 233.87 153.014 C 233.872 150.474 233.872 150.474 233.877 147.885 C 233.7 133.156 231.483 120.198 222.392 108.236 C 222.392 107.24 222.392 106.24 222.392 105.216 C 221.565 104.809 220.735 104.402 219.884 103.985 C 215.572 101.876 211.26 99.766 206.948 97.657 C 206.948 97.16 206.948 96.66 206.948 96.148 Z" fill="#F0AB94" style=""/>
  <path d="M 166.797 285.406 C 171.941 290.489 173.228 291.894 176.065 297.616 C 191.257 318.256 208.045 336.989 228.569 352.561 C 230.089 353.763 231.605 354.965 233.171 356.203 C 252.827 371.671 273.724 384.836 296.521 395.296 C 289.899 400.762 282.864 405.405 275.67 410.081 C 265.172 416.945 254.782 423.932 244.489 431.094 C 240.923 433.455 240.923 433.455 239.379 433.455 C 239.437 432.318 239.493 431.182 239.549 430.009 C 241.366 398.671 241.366 398.671 228.569 370.877 C 227.569 369.482 226.567 368.087 225.534 366.648 C 220.896 360.593 215.846 355.165 210.328 349.888 C 197.783 337.783 187.668 323.386 177.83 309.11 C 177.062 307.997 176.289 306.882 175.496 305.737 C 173.624 303.031 171.755 300.324 169.885 297.616 C 169.895 299.6 169.904 301.588 169.915 303.637 C 169.938 311.025 169.889 318.414 169.82 325.805 C 169.799 328.997 169.797 332.192 169.817 335.388 C 169.839 339.989 169.796 344.586 169.736 349.186 C 169.769 351.32 169.769 351.32 169.801 353.496 C 169.585 363.227 169.585 363.227 166.03 367.647 C 163.299 369.995 160.569 371.989 157.532 373.93 C 156.62 374.554 155.711 375.183 154.774 375.825 C 152.635 377.275 150.454 378.664 148.266 380.034 C 144.125 378.089 140.461 375.972 136.787 373.266 C 135.794 372.536 134.799 371.809 133.776 371.056 C 129.381 367.765 125.024 364.425 120.663 361.09 C 117.592 358.822 114.458 356.745 111.239 354.688 C 98.107 345.84 98.107 345.84 96.615 338.466 C 96.174 330.272 97.3 322.438 98.849 314.404 C 100.888 314.404 102.926 314.404 105.027 314.404 C 105.027 313.397 105.027 312.389 105.027 311.351 C 110.089 308.85 115.691 309.641 121.252 309.675 C 123.201 309.679 123.201 309.679 125.185 309.683 C 129.342 309.692 133.497 309.71 137.649 309.728 C 140.462 309.736 143.275 309.744 146.089 309.751 C 152.992 309.768 159.895 309.793 166.797 309.826 C 166.797 301.767 166.797 293.708 166.797 285.406 Z" fill="#D58175" style=""/>
  <path d="M 171.597 296.919 C 177.028 301.873 181.251 307.126 185.494 313.149 C 194.729 326.173 204.795 338.908 216.299 349.981 C 222.894 356.453 227.936 363.748 232.811 371.593 C 233.637 372.829 234.46 374.068 235.312 375.345 C 244.764 392.091 242.995 416.465 239.256 434.9 C 233.871 436.699 231.829 436.839 226.653 434.252 C 224.368 432.666 224.368 432.666 222.04 431.046 C 220.504 429.995 218.97 428.945 217.389 427.863 C 216.098 426.971 214.809 426.078 213.482 425.161 C 211.887 424.357 211.887 424.357 210.26 423.538 C 210.26 422.467 210.26 421.394 210.26 420.29 C 208.858 420.01 208.858 420.01 207.429 419.723 C 203.537 418.586 200.93 417.045 197.581 414.762 C 195.809 413.563 195.809 413.563 193.999 412.338 C 192.755 411.48 191.509 410.623 190.224 409.738 C 188.945 408.869 187.663 407.997 186.343 407.101 C 176.757 400.565 167.233 393.94 157.757 387.247 C 154.084 384.591 154.084 384.591 150.658 382.955 C 151.42 376.036 155.244 372.75 160.324 368.342 C 164.047 367.026 164.047 367.026 166.765 366.721 C 168.838 360.265 168.709 353.695 168.83 346.982 C 168.861 345.705 168.892 344.429 168.92 343.114 C 169.046 337.665 169.156 332.216 169.265 326.766 C 169.348 322.784 169.444 318.801 169.536 314.818 C 169.557 313.586 169.578 312.353 169.602 311.084 C 169.72 305.963 169.981 301.81 171.597 296.919 Z" fill="#FCC8AF" style=""/>
  <path d="M 100.391 315.93 C 104.818 316.035 109.201 316.235 113.614 316.503 C 116.407 316.657 119.204 316.808 121.994 316.962 C 124.234 317.083 124.234 317.083 126.516 317.211 C 134.923 317.644 143.33 317.978 151.741 318.315 C 153.385 318.381 155.031 318.449 156.727 318.517 C 160.602 318.673 164.47 318.828 168.342 318.984 C 168.612 325.335 168.804 331.688 168.937 338.043 C 168.99 340.203 169.063 342.362 169.159 344.519 C 169.916 362.422 169.916 362.422 166.074 368.155 C 163.328 370.504 160.719 372.222 157.532 373.93 C 155.757 375.129 153.986 376.335 152.222 377.554 C 150.917 378.37 149.611 379.191 148.266 380.034 C 144.125 378.089 140.461 375.972 136.787 373.266 C 135.794 372.536 134.799 371.808 133.776 371.056 C 129.382 367.766 125.024 364.435 120.663 361.104 C 117.585 358.817 114.441 356.691 111.239 354.583 C 98.154 345.547 98.154 345.547 96.591 338.789 C 96.082 331.464 97.115 324.568 98.849 317.458 C 99.358 316.954 99.868 316.449 100.391 315.93 Z" fill="#793450" style=""/>
  <path d="M 302.695 309.826 C 303.204 309.826 303.714 309.826 304.239 309.826 C 304.239 312.847 304.239 315.869 304.239 318.984 C 326.663 317.976 349.087 316.969 372.19 315.93 C 375.276 334.247 375.276 334.247 375.276 341.877 C 372.178 344.686 369.404 346.792 365.915 349.03 C 364.959 349.676 364.004 350.317 363.018 350.98 C 359.914 353.058 356.789 355.1 353.658 357.141 C 351.458 358.598 349.26 360.06 347.064 361.521 C 341.56 365.178 336.034 368.799 330.494 372.403 C 326.404 370.401 322.321 368.4 318.236 366.392 C 317.069 365.824 315.904 365.253 314.7 364.665 C 313.593 364.122 312.484 363.575 311.342 363.012 C 309.799 362.257 309.799 362.257 308.228 361.486 C 305.784 360.192 305.784 360.192 304.239 358.666 C 303.993 355.043 303.839 351.46 303.752 347.833 C 303.72 346.751 303.687 345.669 303.656 344.556 C 303.554 341.087 303.461 337.619 303.371 334.148 C 303.307 331.805 303.238 329.458 303.169 327.11 C 303.004 321.351 302.846 315.586 302.695 309.826 Z" fill="#652747" style=""/>
  <path d="M 123.558 76.307 C 124.067 76.307 124.576 76.307 125.101 76.307 C 126.121 79.327 127.139 82.35 128.189 85.462 C 138.499 86.156 147.64 83.58 157.532 80.883 C 157.404 82.244 157.273 83.606 157.141 85.01 C 156.981 86.794 156.825 88.583 156.663 90.424 C 156.502 92.193 156.342 93.965 156.175 95.787 C 156.014 100.032 156.383 102.829 157.532 106.831 C 157.023 107.335 156.513 107.837 155.989 108.357 C 155.801 110.652 155.711 112.957 155.663 115.26 C 155.621 116.686 155.58 118.108 155.538 119.576 C 155.496 121.098 155.454 122.622 155.409 124.191 C 155.033 134.785 154.332 144.152 150.889 154.24 C 148.281 165.076 148.603 176.627 148.266 187.723 C 146.484 184.222 144.735 180.708 143.012 177.179 C 142.23 175.588 141.447 174 140.642 172.365 C 139.864 170.771 139.083 169.182 138.282 167.541 C 136.268 163.387 136.268 163.387 133.567 161.23 C 130.561 157.938 130.174 155.349 129.354 151.003 C 129.051 149.449 128.749 147.9 128.44 146.3 C 128.135 144.641 127.829 142.979 127.513 141.266 C 126.853 137.811 126.19 134.356 125.531 130.899 C 125.204 129.167 124.876 127.437 124.539 125.649 C 123.628 120.928 122.649 116.226 121.633 111.523 C 121.339 110.145 121.043 108.767 120.74 107.349 C 120.188 104.777 119.623 102.202 119.048 99.633 C 117.387 91.749 116.607 85.941 121.24 78.88 C 122.007 78.033 122.77 77.181 123.558 76.307 Z" fill="#27132B" style=""/>
  <path d="M 234.746 -1.535 C 246.848 -2.252 263.004 -1.882 272.43 6.239 C 274.417 8.435 274.417 8.435 276.444 10.675 C 278.469 12.683 280.511 14.679 282.56 16.668 C 284.83 18.9 287.106 21.131 289.377 23.361 C 290.504 24.464 291.63 25.565 292.791 26.699 C 311.74 45.345 311.74 45.345 315.049 51.886 C 304.135 52.261 293.459 51.763 282.619 50.549 C 281.493 50.429 280.367 50.31 279.206 50.185 C 271.535 49.27 266.419 48.61 261.458 42.584 C 260.668 41.371 259.883 40.16 259.071 38.913 C 258.264 37.698 257.461 36.488 256.633 35.24 C 254.822 32.043 254.822 32.043 254.822 28.99 C 253.803 28.99 252.785 28.99 251.735 28.99 C 251.058 27.55 251.058 27.55 250.371 26.082 C 246.45 17.988 242.234 10.916 236.501 3.951 C 234.746 1.518 234.746 1.518 234.746 -1.535 Z" fill="#492C43" style=""/>
  <path d="M 491.1 502.804 C 495.732 503.663 495.732 503.663 498.23 507.014 C 508.583 527.765 505.164 557.435 504.999 579.977 C 495.824 579.977 486.654 579.977 477.2 579.977 C 477.055 563.972 477.024 547.986 477.782 531.994 C 477.829 530.815 477.877 529.634 477.924 528.419 C 478.458 518.485 479.518 504.95 491.1 502.804 Z" fill="#B76271" style=""/>
  <path d="M 418.52 409.034 C 418.52 409.537 418.52 410.041 418.52 410.559 C 415.978 411.058 415.978 411.058 413.39 411.567 C 404.734 413.715 397.234 417.83 389.37 421.911 C 375.774 428.799 362.051 435.144 347.963 440.989 C 345.562 441.986 345.562 441.986 343.11 443.004 C 326.29 449.909 309.598 456.611 291.886 460.928 C 291.377 462.942 290.865 464.956 290.34 467.032 C 288.304 467.032 286.264 467.032 284.165 467.032 C 284.165 459.979 284.165 452.928 284.165 445.663 C 287.159 444.878 290.152 444.092 293.24 443.28 C 303.384 440.496 313.076 436.866 322.844 433.006 C 330.91 429.841 339.027 427.022 347.288 424.39 C 359.13 420.612 370.648 416.194 382.157 411.518 C 383.386 411.018 384.615 410.517 385.884 410.003 C 386.967 409.56 388.055 409.115 389.172 408.654 C 399.03 404.996 408.956 404.307 418.52 409.034 Z" fill="#592242" style=""/>
  <path d="M 58.696 405.981 C 67.207 405.298 74.632 405.821 82.785 408.402 C 84.542 408.956 86.301 409.512 88.107 410.083 C 99.213 413.705 110.28 417.426 121.34 421.173 C 125.457 422.568 129.577 423.96 133.698 425.351 C 141.647 428.037 149.591 430.741 157.532 433.455 C 158.829 433.896 160.127 434.34 161.464 434.798 C 165.164 436.064 168.864 437.341 172.564 438.617 C 174.238 439.191 174.238 439.191 175.946 439.775 C 183.605 442.435 183.605 442.435 185.33 444.137 C 185.549 449.733 185.396 455.327 185.33 460.928 C 171.397 456.071 157.689 450.718 144.019 445.187 C 142.892 444.731 141.765 444.278 140.604 443.808 C 121.076 435.894 102.027 427.178 83.136 417.884 C 81.704 417.183 81.704 417.183 80.245 416.466 C 77.683 415.207 75.129 413.939 72.578 412.668 C 68.021 410.587 63.483 408.979 58.696 407.507 C 58.696 407.003 58.696 406.499 58.696 405.981 Z" fill="#8C485B" style=""/>
  <path d="M 273.354 425.823 C 276.412 425.823 279.469 425.823 282.619 425.823 C 282.619 476.693 282.619 527.565 282.619 579.977 C 279.562 579.977 276.504 579.977 273.354 579.977 C 273.354 529.106 273.354 478.234 273.354 425.823 Z" fill="#FDEBDE" style=""/>
  <path d="M 196.138 448.717 C 203.86 450.245 203.86 450.245 208.494 453.295 C 208.891 457.409 208.986 461.162 208.877 465.271 C 208.86 466.507 208.849 467.743 208.833 469.015 C 208.781 473.113 208.696 477.211 208.609 481.306 C 208.566 484.14 208.522 486.977 208.483 489.81 C 208.375 497.285 208.239 504.758 208.095 512.229 C 207.955 519.85 207.84 527.473 207.724 535.095 C 207.492 550.055 207.23 565.016 206.948 579.977 C 203.382 579.977 199.814 579.977 196.138 579.977 C 196.138 536.66 196.138 493.344 196.138 448.717 Z" fill="#C56F7A" style=""/>
  <path d="M 117.378 161.777 C 117.891 162.782 118.4 163.791 118.923 164.83 C 120.07 165.237 121.218 165.648 122.4 166.07 C 131.625 170.006 136.077 177.706 140.545 186.197 C 141.069 187.09 141.597 187.979 142.136 188.898 C 147.368 198.201 152.623 211.207 150.695 221.897 C 150.405 222.706 150.112 223.52 149.81 224.352 C 138.883 218.617 131.226 212.546 123.558 202.987 C 122.539 201.981 121.517 200.972 120.469 199.931 C 119.959 199.931 119.45 199.931 118.923 199.931 C 117.211 191.799 117.201 183.967 117.283 175.705 C 117.292 174.361 117.297 173.02 117.304 171.638 C 117.323 168.353 117.352 165.064 117.378 161.777 Z" fill="#E39280" style=""/>
  <path d="M 282.619 465.506 C 283.13 465.506 283.638 465.506 284.165 465.506 C 284.165 473.061 284.165 480.617 284.165 488.4 C 287.223 487.393 290.28 486.386 293.432 485.348 C 293.432 516.575 293.432 547.802 293.432 579.977 C 289.863 579.977 286.297 579.977 282.619 579.977 C 282.619 542.201 282.619 504.426 282.619 465.506 Z" fill="#C7767B" style=""/>
  <path d="M 319.682 166.357 C 320.191 166.357 320.701 166.357 321.228 166.357 C 321.323 167.99 321.416 169.625 321.511 171.311 C 321.642 173.442 321.774 175.575 321.901 177.706 C 321.965 178.785 322.026 179.863 322.088 180.978 C 321.964 186.33 321.964 186.33 324.315 190.777 C 324.73 189.676 325.143 188.573 325.569 187.435 C 329.96 177.156 334.156 173.709 344.393 169.408 C 348.511 173.478 346.79 184.118 346.852 189.56 C 346.627 199.985 344.774 206.304 337.142 213.89 C 323.99 224.352 323.99 224.352 318.14 224.352 C 318.649 205.215 319.157 186.073 319.682 166.357 Z" fill="#9C404D" style=""/>
  <path d="M 166.797 285.406 C 168.327 286.916 169.856 288.428 171.431 289.984 C 171.001 292.585 171.001 292.585 169.885 296.088 C 169.539 300.037 169.248 303.963 169.015 307.918 C 168.918 309.514 168.918 309.514 168.817 311.142 C 168.653 313.756 168.499 316.369 168.342 318.984 C 145.121 319.176 122.033 318.794 98.849 317.458 C 98.849 316.449 98.849 315.442 98.849 314.404 C 100.888 314.404 102.926 314.404 105.027 314.404 C 105.027 313.397 105.027 312.389 105.027 311.351 C 110.089 308.85 115.691 309.641 121.252 309.675 C 123.201 309.679 123.201 309.679 125.185 309.683 C 129.342 309.692 133.497 309.71 137.649 309.728 C 140.462 309.736 143.275 309.744 146.089 309.751 C 152.992 309.768 159.895 309.793 166.797 309.826 C 166.797 301.767 166.797 293.708 166.797 285.406 Z" fill="#E09E9E" style=""/>
  <path d="M 304.239 309.826 C 329.212 309.826 354.184 309.826 379.909 309.826 C 380.931 312.345 381.949 314.862 383 317.458 C 381.472 316.954 379.944 316.449 378.365 315.93 C 377.602 314.42 377.602 314.42 376.823 312.878 C 372.746 313.382 368.668 313.886 364.469 314.404 C 364.469 315.411 364.469 316.416 364.469 317.458 C 344.367 318.815 324.387 319.16 304.239 318.984 C 304.239 315.962 304.239 312.94 304.239 309.826 Z" fill="#B46F7F" style=""/>
  <path d="M 169.885 289.984 C 172.975 291.51 172.975 291.51 174.243 294.044 C 185.312 315.738 207.457 336.871 227.025 351.037 C 226.516 354.057 226.006 357.08 225.483 360.192 C 211.51 358.273 199.396 338.458 191.24 327.849 C 186.527 321.607 181.87 315.325 177.316 308.967 C 176.574 307.951 175.828 306.93 175.063 305.883 C 171.251 300.452 168.858 296.867 169.885 289.984 Z" fill="#DF9085" style=""/>
  <path d="M 117.378 161.777 C 117.891 162.782 118.4 163.791 118.923 164.83 C 120.07 165.237 121.218 165.648 122.4 166.07 C 131.686 170.033 136.08 177.689 140.545 186.197 C 141.054 187.707 141.563 189.219 142.087 190.777 C 135.975 190.777 129.857 190.777 123.558 190.777 C 124.067 194.805 124.576 198.835 125.101 202.987 C 122.108 202.032 122.108 202.032 118.923 199.931 C 116.882 191.96 117.201 183.869 117.283 175.705 C 117.292 174.361 117.297 173.02 117.304 171.638 C 117.323 168.353 117.352 165.064 117.378 161.777 Z" fill="#E4A296" style=""/>
  <path d="M 196.138 428.876 C 204.278 430.216 206.727 430.925 213.127 434.979 C 215.133 435.688 215.133 435.688 217.179 436.411 C 221.432 438.289 223.02 440.299 225.483 444.137 C 215.502 453.295 215.502 453.295 206.948 453.295 C 203.1 452.072 199.778 450.514 196.138 448.717 C 196.138 442.17 196.138 435.621 196.138 428.876 Z" fill="#F1AFAB" style=""/>
  <path d="M 271.812 444.137 C 272.32 444.137 272.829 444.137 273.354 444.137 C 273.354 488.964 273.354 533.791 273.354 579.977 C 272.845 579.977 272.334 579.977 271.812 579.977 C 271.301 540.689 270.79 501.403 270.265 460.928 C 263.64 458.912 257.016 456.898 250.19 454.821 C 254.604 450.46 259.12 450.615 265.15 449.725 C 269.271 448.974 269.271 448.974 271.812 444.137 Z" fill="#E4BBB3" style=""/>
  <path d="M 291.886 459.401 C 292.906 459.401 293.924 459.401 294.973 459.401 C 294.464 467.963 293.955 476.525 293.432 485.348 C 290.373 486.354 287.315 487.36 284.165 488.4 C 284.165 481.349 284.165 474.295 284.165 467.032 C 286.202 467.032 288.239 467.032 290.34 467.032 C 290.85 464.514 291.362 461.997 291.886 459.401 Z" fill="#9F4F60" style=""/>
  <path d="M 114.497 309.675 C 115.742 309.681 116.985 309.685 118.267 309.692 C 120.216 309.709 120.216 309.709 122.205 309.728 C 123.52 309.735 124.829 309.741 126.182 309.751 C 129.426 309.768 132.669 309.794 135.912 309.825 C 135.402 310.831 134.894 311.839 134.367 312.877 C 132.839 313.381 131.311 313.884 129.734 314.403 C 131.262 315.409 132.79 316.415 134.367 317.457 C 122.647 317.457 110.924 317.457 98.849 317.457 C 98.849 316.448 98.849 315.44 98.849 314.403 C 100.888 314.403 102.926 314.403 105.027 314.403 C 105.027 313.396 105.027 312.388 105.027 311.349 C 108.574 309.6 110.558 309.649 114.497 309.675 Z" fill="#E4AEAF" style=""/>
  <path d="M 342.461 157.485 C 345.937 158.725 345.937 158.725 347.481 160.251 C 347.546 162.793 347.549 165.339 347.481 167.882 C 345.552 168.619 343.622 169.348 341.689 170.076 C 340.077 170.688 340.077 170.688 338.433 171.311 C 335.294 172.403 332.187 173.245 328.948 173.988 C 329.318 167.66 329.609 164.278 333.967 159.487 C 338.215 157.197 338.215 157.197 342.461 157.485 Z" fill="#BD6874" style=""/>
  <path d="M 210.037 434.979 C 220.111 437.235 220.111 437.235 223.841 441.276 C 224.38 442.222 224.923 443.164 225.483 444.137 C 219.309 449.801 215.642 452.683 206.948 453.295 C 207.46 452.288 207.967 451.28 208.494 450.245 C 208.843 447.641 209.125 445.033 209.361 442.42 C 209.492 441.031 209.619 439.643 209.752 438.211 C 209.845 437.144 209.941 436.079 210.037 434.979 Z" fill="#EAAAA5" style=""/>
  <path d="M 271.812 444.137 C 272.32 444.137 272.829 444.137 273.354 444.137 C 273.354 449.677 273.354 455.22 273.354 460.928 C 255.982 456.429 255.982 456.429 250.19 453.295 C 252.142 452.88 252.142 452.88 254.136 452.455 C 256.674 451.879 256.674 451.879 259.262 451.294 C 260.946 450.921 262.631 450.548 264.366 450.163 C 269.175 449.052 269.175 449.052 271.812 444.137 Z" fill="#C67D7E" style=""/>
  <path d="M 319.682 157.197 C 322.222 162.213 323.41 165.561 324.315 170.936 C 325.335 168.416 326.357 165.897 327.403 163.303 C 328.423 163.303 329.445 163.303 330.494 163.303 C 329.792 166.199 329.083 169.091 328.37 171.984 C 327.977 173.595 327.582 175.207 327.174 176.866 C 325.984 181.166 324.54 185.152 322.773 189.249 C 322.263 189.249 321.753 189.249 321.228 189.249 C 320.717 178.674 320.209 168.096 319.682 157.197 Z" fill="#23041F" style=""/>
  <path d="M 196.138 448.717 C 197.16 448.717 198.178 448.717 199.229 448.717 C 201.002 455.544 200.835 462.129 200.585 469.113 C 200.549 470.321 200.512 471.53 200.475 472.776 C 200.358 476.619 200.228 480.457 200.095 484.297 C 200.014 486.91 199.931 489.522 199.851 492.135 C 199.652 498.521 199.446 504.909 199.229 511.295 C 198.717 511.295 198.208 511.295 197.685 511.295 C 197.176 490.644 196.666 469.994 196.138 448.717 Z" fill="#B76872" style=""/>
  <path d="M 101.938 416.665 C 104.191 417.095 106.442 417.544 108.694 418.001 C 109.948 418.248 111.201 418.495 112.494 418.751 C 115.836 419.717 115.836 419.717 118.923 422.769 C 116.376 422.769 113.829 422.769 111.202 422.769 C 111.202 423.777 111.202 424.785 111.202 425.823 C 107.127 425.318 103.05 424.815 98.849 424.297 C 99.868 423.791 100.888 423.288 101.938 422.769 C 101.938 420.757 101.938 418.741 101.938 416.665 Z" fill="#884055" style=""/>
  <path d="M 277.987 416.665 C 279.006 417.169 280.025 417.672 281.077 418.192 C 280.565 419.7 280.058 421.211 279.532 422.769 C 280.551 423.777 281.571 424.785 282.619 425.823 C 279.562 425.823 276.504 425.823 273.354 425.823 C 273.354 431.868 273.354 437.909 273.354 444.137 C 272.845 444.137 272.334 444.137 271.812 444.137 C 271.717 442.961 271.622 441.784 271.527 440.572 C 271.397 439.041 271.268 437.512 271.134 435.934 C 271.009 434.41 270.883 432.889 270.753 431.32 C 270.499 427.378 270.499 427.378 268.722 424.297 C 269.74 424.297 270.76 424.297 271.812 424.297 C 272.32 422.785 272.829 421.273 273.354 419.717 C 274.884 418.71 276.412 417.704 277.987 416.665 Z" fill="#F0C6BC" style=""/>
  <path d="M 277.987 387.666 C 287.159 391.444 287.159 391.444 296.521 395.296 C 288.796 401.402 288.796 401.402 284.165 402.927 C 284.676 399.907 285.185 396.885 285.71 393.77 C 281.888 392.26 281.888 392.26 277.987 390.72 C 277.987 389.711 277.987 388.704 277.987 387.666 Z" fill="#C9807E" style=""/>
  <path d="M 169.885 289.984 C 173.887 291.958 174.118 293.656 176.065 297.616 C 178.095 300.686 180.15 303.741 182.24 306.773 C 181.73 307.781 181.222 308.788 180.697 309.826 C 179.677 309.826 178.659 309.826 177.609 309.826 C 173.374 304.715 170.099 299.643 169.403 293.037 C 169.562 292.027 169.724 291.02 169.885 289.984 Z" fill="#CD837C" style=""/>
  <path d="M 267.178 4.571 C 269.429 5.043 271.681 5.518 273.934 6 C 275.187 6.265 276.44 6.531 277.734 6.806 C 281.077 7.621 281.077 7.621 284.165 9.149 C 283.655 11.666 283.146 14.187 282.619 16.779 C 280.625 15.32 278.627 13.857 276.636 12.393 C 275.525 11.578 274.413 10.764 273.27 9.925 C 270.265 7.621 270.265 7.621 267.178 4.571 Z" fill="#0E0B31" style=""/>
  <path d="M 206.244 -1.832 C 208.729 -1.818 208.729 -1.818 211.264 -1.802 C 213.859 -1.764 213.859 -1.764 216.505 -1.726 C 218.252 -1.71 219.999 -1.698 221.797 -1.684 C 226.114 -1.648 230.43 -1.598 234.746 -1.535 C 234.746 -1.031 234.746 -0.529 234.746 -0.008 C 233.017 0.085 231.288 0.177 229.503 0.272 C 227.231 0.402 224.956 0.532 222.683 0.66 C 221.542 0.72 220.401 0.78 219.228 0.841 C 214.314 1.128 210.098 1.499 205.407 3.044 C 205.407 2.036 205.407 1.03 205.407 -0.008 C 201.328 0.496 197.252 1 193.052 1.518 C 198.3 -1.941 200.096 -1.896 206.244 -1.832 Z" fill="#50404F" style=""/>
  <path d="M 273.354 444.137 C 273.354 449.677 273.354 455.22 273.354 460.928 C 272.334 460.928 271.315 460.928 270.265 460.928 C 269.787 459.731 269.31 458.533 268.817 457.302 C 267.287 453.411 267.287 453.411 265.633 450.245 C 271.617 444.137 271.617 444.137 273.354 444.137 Z" fill="#B57A77" style=""/>
  <path d="M 98.849 317.458 C 102.81 323.331 102.789 327.278 103.482 334.247 C 101.954 335.001 101.954 335.001 100.391 335.771 C 99.375 337.788 98.356 339.802 97.304 341.877 C 97.816 333.819 98.323 325.759 98.849 317.458 Z" fill="#903D5E" style=""/>
  <path d="M 203.86 314.404 C 210.767 316.569 217.311 319.158 223.937 322.037 C 216.955 324.26 212.329 322.448 205.407 320.507 C 204.895 318.495 204.386 316.479 203.86 314.404 Z" fill="#512034" style=""/>
  <path d="M 271.812 412.087 C 266.712 415.613 261.617 419.138 256.367 422.769 C 255.856 421.765 255.349 420.757 254.822 419.717 C 255.842 419.717 256.861 419.717 257.911 419.717 C 258.295 418.772 258.676 417.827 259.071 416.854 C 262.454 411.167 265.537 410.019 271.812 412.087 Z" fill="#C9887D" style=""/>
  <path d="M 58.696 405.981 C 63.795 405.981 68.888 405.981 74.139 405.981 C 73.63 407.492 73.122 409.003 72.597 410.559 C 73.613 410.559 74.635 410.559 75.685 410.559 C 75.176 411.567 74.665 412.575 74.139 413.612 C 66.494 410.59 66.494 410.59 58.696 407.507 C 58.696 407.003 58.696 406.499 58.696 405.981 Z" fill="#9B666C" style=""/>
  <path d="M 307.326 45.78 C 313.314 48.451 313.314 48.451 315.049 51.886 C 308.935 51.886 302.819 51.886 296.521 51.886 C 296.521 51.382 296.521 50.877 296.521 50.36 C 299.577 50.36 302.633 50.36 305.784 50.36 C 306.296 48.848 306.803 47.337 307.326 45.78 Z" fill="#362343" style=""/>
  <path d="M 196.138 428.876 C 200.726 429.631 200.726 429.631 205.407 430.401 C 203.913 430.938 203.913 430.938 202.389 431.486 C 198.906 433.166 198.906 433.166 198.287 436.757 C 198.215 437.997 198.145 439.235 198.07 440.512 C 197.982 441.761 197.894 443.008 197.804 444.292 C 197.764 445.251 197.726 446.204 197.685 447.19 C 197.176 447.19 196.666 447.19 196.138 447.19 C 196.138 441.146 196.138 435.102 196.138 428.876 Z" fill="#E9B9B3" style=""/>
  <path d="M 72.597 407.507 C 77.181 408.01 81.77 408.514 86.495 409.034 C 85.476 410.041 84.454 411.048 83.405 412.087 C 81.878 412.087 80.347 412.087 78.773 412.087 C 78.264 413.094 77.753 414.101 77.229 415.138 C 76.719 413.629 76.21 412.117 75.685 410.559 C 74.665 410.559 73.646 410.559 72.597 410.559 C 72.597 409.553 72.597 408.546 72.597 407.507 Z" fill="#935663" style=""/>
  <path d="M 140.545 198.408 C 146.528 201.268 146.528 201.268 148.266 202.987 C 148.33 206.038 148.332 209.092 148.266 212.141 C 144.675 207.788 142.475 203.687 140.545 198.408 Z" fill="#CC826F" style=""/>
  <path d="M 284.165 302.195 C 275.286 309.826 275.286 309.826 271.812 309.826 C 272.097 306.964 272.097 306.964 273.354 303.72 C 280.045 300.158 280.045 300.158 284.165 302.195 Z" fill="#CB7F7E" style=""/>
  <path d="M 123.558 76.307 C 124.067 76.307 124.576 76.307 125.101 76.307 C 125.584 79.74 125.584 79.74 125.101 83.938 C 121.24 87.466 121.24 87.466 117.378 90.04 C 118.196 84.237 119.6 80.704 123.558 76.307 Z" fill="#231C37" style=""/>
</svg>